<svg width="500" height="500" viewBox="0 0 500 500" fill="none" xmlns="http://www.w3.org/2000/svg">
<path d="M153.1 261.77C187 214.34 266.1 226.31 308.65 254.37C350.43 281.96 382.73 334.24 434.4 282.78C473.07 244.26 462.75 171.27 424.14 136.63C377.33 94.63 346.48 161.63 297.58 146.16C263.02 135.22 264.91 89.41 235.28 73.56C169.41 38.32 164.08 138.8 125.12 154.41C98.59 165 72.74 153.29 48.06 176.56C26 197.33 21.25 229 28 257.5C46.52 336.16 116.06 313.65 153.1 261.77Z" fill="#B0BEC5"/>
<g opacity="0.9">
<path d="M153.1 261.77C187 214.34 266.1 226.31 308.65 254.37C350.43 281.96 382.73 334.24 434.4 282.78C473.07 244.26 462.75 171.27 424.14 136.63C377.33 94.63 346.48 161.63 297.58 146.16C263.02 135.22 264.91 89.41 235.28 73.56C169.41 38.32 164.08 138.8 125.12 154.41C98.59 165 72.74 153.29 48.06 176.56C26 197.33 21.25 229 28 257.5C46.52 336.16 116.06 313.65 153.1 261.77Z" fill="white"/>
</g>
<path d="M250 427.56C357.082 427.56 443.89 422.492 443.89 416.24C443.89 409.988 357.082 404.92 250 404.92C142.917 404.92 56.11 409.988 56.11 416.24C56.11 422.492 142.917 427.56 250 427.56Z" fill="#F5F5F5"/>
<path d="M131.91 186.65L131.02 186.19C138.789 171.022 149.221 157.375 161.82 145.9L162.5 146.64C149.988 158.035 139.626 171.587 131.91 186.65Z" fill="#B0BEC5"/>
<path d="M119.39 222.35L118.39 222.15C119.838 215.079 121.823 208.129 124.33 201.36L125.27 201.71C122.783 208.429 120.818 215.329 119.39 222.35Z" fill="#B0BEC5"/>
<path opacity="0.9" d="M336.981 330.394C381.145 286.23 381.145 214.625 336.981 170.461C292.817 126.296 221.212 126.296 177.048 170.461C132.883 214.625 132.883 286.23 177.048 330.394C221.212 374.558 292.817 374.558 336.981 330.394Z" fill="#FAFAFA"/>
<g opacity="0.4">
<path d="M176.99 313.68H150.4L155.54 301.06H171.85L176.99 313.68Z" fill="#B0BEC5"/>
<path opacity="0.2" d="M176.99 313.68H150.4L155.54 301.06H171.85L176.99 313.68Z" fill="#FAFAFA"/>
<path d="M217.4 313.68H176.99L171.85 301.06H212.26L217.4 313.68Z" fill="#B0BEC5"/>
<path opacity="0.3" d="M217.4 313.68H176.99L171.85 301.06H212.26L217.4 313.68Z" fill="black"/>
<path d="M210.93 313.68H184.33L189.47 301.06H205.79L210.93 313.68Z" fill="#B0BEC5"/>
<path opacity="0.2" d="M210.93 313.68H184.33L189.47 301.06H205.79L210.93 313.68Z" fill="#FAFAFA"/>
<path d="M251.33 313.68H210.93L205.79 301.06H246.19L251.33 313.68Z" fill="#B0BEC5"/>
<path opacity="0.3" d="M251.33 313.68H210.93L205.79 301.06H246.19L251.33 313.68Z" fill="black"/>
<path d="M244.86 313.68H218.27L223.41 301.06H239.72L244.86 313.68Z" fill="#B0BEC5"/>
<path opacity="0.2" d="M244.86 313.68H218.27L223.41 301.06H239.72L244.86 313.68Z" fill="#FAFAFA"/>
<path d="M285.26 313.68H244.86L239.72 301.06H280.13L285.26 313.68Z" fill="#B0BEC5"/>
<path opacity="0.3" d="M285.26 313.68H244.86L239.72 301.06H280.13L285.26 313.68Z" fill="black"/>
<path d="M278.79 313.68H252.2L257.34 301.06H273.65L278.79 313.68Z" fill="#B0BEC5"/>
<path opacity="0.2" d="M278.79 313.68H252.2L257.34 301.06H273.65L278.79 313.68Z" fill="#FAFAFA"/>
<path d="M319.2 313.68H278.79L273.65 301.06H314.06L319.2 313.68Z" fill="#B0BEC5"/>
<path opacity="0.3" d="M319.2 313.68H278.79L273.65 301.06H314.06L319.2 313.68Z" fill="black"/>
<path d="M312.73 313.68H286.13L291.27 301.06H307.59L312.73 313.68Z" fill="#B0BEC5"/>
<path opacity="0.2" d="M312.73 313.68H286.13L291.27 301.06H307.59L312.73 313.68Z" fill="#FAFAFA"/>
<path d="M334.29 313.68C335.577 309.5 336.743 305.293 337.79 301.06H307.59L312.73 313.68H334.29Z" fill="#B0BEC5"/>
<path opacity="0.3" d="M334.29 313.68C335.577 309.5 336.743 305.293 337.79 301.06H307.59L312.73 313.68H334.29Z" fill="black"/>
<path d="M337.79 301.06H325.21L320.07 313.68H334.29C335.583 309.5 336.75 305.293 337.79 301.06Z" fill="#B0BEC5"/>
<path opacity="0.2" d="M337.79 301.06H325.21L320.07 313.68H334.29C335.583 309.5 336.75 305.293 337.79 301.06Z" fill="#FAFAFA"/>
<path d="M187.36 301.06H160.76L165.9 288.43H182.22L187.36 301.06Z" fill="#B0BEC5"/>
<path opacity="0.2" d="M187.36 301.06H160.76L165.9 288.43H182.22L187.36 301.06Z" fill="#FAFAFA"/>
<path d="M227.76 301.06H187.36L182.22 288.43H222.62L227.76 301.06Z" fill="#B0BEC5"/>
<path opacity="0.3" d="M227.76 301.06H187.36L182.22 288.43H222.62L227.76 301.06Z" fill="black"/>
<path d="M221.29 301.06H194.7L199.84 288.43H216.15L221.29 301.06Z" fill="#B0BEC5"/>
<path opacity="0.2" d="M221.29 301.06H194.7L199.84 288.43H216.15L221.29 301.06Z" fill="#FAFAFA"/>
<path d="M261.69 301.06H221.29L216.15 288.43H256.56L261.69 301.06Z" fill="#B0BEC5"/>
<path opacity="0.3" d="M261.69 301.06H221.29L216.15 288.43H256.56L261.69 301.06Z" fill="black"/>
<path d="M255.22 301.06H228.63L233.77 288.43H250.08L255.22 301.06Z" fill="#B0BEC5"/>
<path opacity="0.2" d="M255.22 301.06H228.63L233.77 288.43H250.08L255.22 301.06Z" fill="#FAFAFA"/>
<path d="M295.63 301.06H255.22L250.08 288.43H290.49L295.63 301.06Z" fill="#B0BEC5"/>
<path opacity="0.3" d="M295.63 301.06H255.22L250.08 288.43H290.49L295.63 301.06Z" fill="black"/>
<path d="M289.16 301.06H262.56L267.7 288.43H284.02L289.16 301.06Z" fill="#B0BEC5"/>
<path opacity="0.2" d="M289.16 301.06H262.56L267.7 288.43H284.02L289.16 301.06Z" fill="#FAFAFA"/>
<path d="M329.56 301.06H289.16L284.02 288.43H324.42L329.56 301.06Z" fill="#B0BEC5"/>
<path opacity="0.3" d="M329.56 301.06H289.16L284.02 288.43H324.42L329.56 301.06Z" fill="black"/>
<path d="M323.09 301.06H296.5L301.64 288.43H317.95L323.09 301.06Z" fill="#B0BEC5"/>
<path opacity="0.2" d="M323.09 301.06H296.5L301.64 288.43H317.95L323.09 301.06Z" fill="#FAFAFA"/>
<path d="M337.79 301.06C338.79 296.87 339.74 292.67 340.52 288.43H318L323.14 301.06H337.79Z" fill="#B0BEC5"/>
<path opacity="0.3" d="M337.79 301.06C338.79 296.87 339.74 292.67 340.52 288.43H318L323.14 301.06H337.79Z" fill="black"/>
<path d="M340.52 288.43H335.57L330.43 301.06H337.79C338.82 296.87 339.74 292.67 340.52 288.43Z" fill="#B0BEC5"/>
<path opacity="0.2" d="M340.52 288.43H335.57L330.43 301.06H337.79C338.82 296.87 339.74 292.67 340.52 288.43Z" fill="#FAFAFA"/>
<path d="M196.24 288.43H169.65L174.79 275.81H191.1L196.24 288.43Z" fill="#B0BEC5"/>
<path opacity="0.2" d="M196.24 288.43H169.65L174.79 275.81H191.1L196.24 288.43Z" fill="#FAFAFA"/>
<path d="M236.65 288.43H196.24L191.1 275.81H231.51L236.65 288.43Z" fill="#B0BEC5"/>
<path opacity="0.3" d="M236.65 288.43H196.24L191.1 275.81H231.51L236.65 288.43Z" fill="black"/>
<path d="M230.18 288.43H203.58L208.72 275.81H225.03L230.18 288.43Z" fill="#B0BEC5"/>
<path opacity="0.2" d="M230.18 288.43H203.58L208.72 275.81H225.03L230.18 288.43Z" fill="#FAFAFA"/>
<path d="M270.58 288.43H230.18L225.03 275.81H265.44L270.58 288.43Z" fill="#B0BEC5"/>
<path opacity="0.3" d="M270.58 288.43H230.18L225.03 275.81H265.44L270.58 288.43Z" fill="black"/>
<path d="M264.11 288.43H237.52L242.66 275.81H258.97L264.11 288.43Z" fill="#B0BEC5"/>
<path opacity="0.2" d="M264.11 288.43H237.52L242.66 275.81H258.97L264.11 288.43Z" fill="#FAFAFA"/>
<path d="M304.51 288.43H264.11L258.97 275.81H299.37L304.51 288.43Z" fill="#B0BEC5"/>
<path opacity="0.3" d="M304.51 288.43H264.11L258.97 275.81H299.37L304.51 288.43Z" fill="black"/>
<path d="M298.04 288.43H271.45L276.59 275.81H292.9L298.04 288.43Z" fill="#B0BEC5"/>
<path opacity="0.2" d="M298.04 288.43H271.45L276.59 275.81H292.9L298.04 288.43Z" fill="#FAFAFA"/>
<path d="M338.45 288.43H298.04L292.9 275.81H333.31L338.45 288.43Z" fill="#B0BEC5"/>
<path opacity="0.3" d="M338.45 288.43H298.04L292.9 275.81H333.31L338.45 288.43Z" fill="black"/>
<path d="M331.98 288.43H305.38L310.52 275.81H326.84L331.98 288.43Z" fill="#B0BEC5"/>
<path opacity="0.2" d="M331.98 288.43H305.38L310.52 275.81H326.84L331.98 288.43Z" fill="#FAFAFA"/>
<path d="M340.52 288.43C341.3 284.25 341.967 280.043 342.52 275.81H326.84L332 288.43H340.52Z" fill="#B0BEC5"/>
<path opacity="0.3" d="M340.52 288.43C341.3 284.25 341.967 280.043 342.52 275.81H326.84L332 288.43H340.52Z" fill="black"/>
<path d="M341.41 283.29L339.32 288.43H340.52C340.84 286.723 341.136 285.01 341.41 283.29Z" fill="#B0BEC5"/>
<path opacity="0.2" d="M341.41 283.29L339.32 288.43H340.52C340.84 286.723 341.136 285.01 341.41 283.29Z" fill="#FAFAFA"/>
<path d="M206.6 275.81H180.01L185.15 263.19H201.47L206.6 275.81Z" fill="#B0BEC5"/>
<path opacity="0.2" d="M206.6 275.81H180.01L185.15 263.19H201.47L206.6 275.81Z" fill="#FAFAFA"/>
<path d="M247.01 275.81H206.6L201.47 263.19H241.87L247.01 275.81Z" fill="#B0BEC5"/>
<path opacity="0.3" d="M247.01 275.81H206.6L201.47 263.19H241.87L247.01 275.81Z" fill="black"/>
<path d="M240.54 275.81H213.95L219.09 263.19H235.4L240.54 275.81Z" fill="#B0BEC5"/>
<path opacity="0.2" d="M240.54 275.81H213.95L219.09 263.19H235.4L240.54 275.81Z" fill="#FAFAFA"/>
<path d="M280.94 275.81H240.54L235.4 263.19H275.81L280.94 275.81Z" fill="#B0BEC5"/>
<path opacity="0.3" d="M280.94 275.81H240.54L235.4 263.19H275.81L280.94 275.81Z" fill="black"/>
<path d="M274.47 275.81H247.88L253.02 263.19H269.33L274.47 275.81Z" fill="#B0BEC5"/>
<path opacity="0.2" d="M274.47 275.81H247.88L253.02 263.19H269.33L274.47 275.81Z" fill="#FAFAFA"/>
<path d="M314.88 275.81H274.47L269.33 263.19H309.74L314.88 275.81Z" fill="#B0BEC5"/>
<path opacity="0.3" d="M314.88 275.81H274.47L269.33 263.19H309.74L314.88 275.81Z" fill="black"/>
<path d="M308.41 275.81H281.81L286.95 263.19H303.27L308.41 275.81Z" fill="#B0BEC5"/>
<path opacity="0.2" d="M308.41 275.81H281.81L286.95 263.19H303.27L308.41 275.81Z" fill="#FAFAFA"/>
<path d="M342.48 275.81C343 271.617 343.383 267.41 343.63 263.19H303.27L308.41 275.81H342.48Z" fill="#B0BEC5"/>
<path opacity="0.3" d="M342.48 275.81C343 271.617 343.383 267.41 343.63 263.19H303.27L308.41 275.81H342.48Z" fill="black"/>
<path d="M342.34 275.81H315.75L320.89 263.19H337.2L342.34 275.81Z" fill="#B0BEC5"/>
<path opacity="0.2" d="M342.34 275.81H315.75L320.89 263.19H337.2L342.34 275.81Z" fill="#FAFAFA"/>
<path d="M342.48 275.81C343 271.617 343.383 267.41 343.63 263.19H337.2L342.34 275.81H342.48Z" fill="#B0BEC5"/>
<path opacity="0.3" d="M342.48 275.81C343 271.617 343.383 267.41 343.63 263.19H337.2L342.34 275.81H342.48Z" fill="black"/>
<path d="M200.71 364.17H209.79L204.65 351.55H184.51C190.228 355.332 195.644 359.551 200.71 364.17Z" fill="#B0BEC5"/>
<path opacity="0.3" d="M200.71 364.17H209.79L204.65 351.55H184.51C190.228 355.332 195.644 359.551 200.71 364.17Z" fill="black"/>
<path d="M200.71 364.17H203.32L198.18 351.55H184.51C190.228 355.332 195.644 359.551 200.71 364.17Z" fill="#B0BEC5"/>
<path opacity="0.2" d="M200.71 364.17H203.32L198.18 351.55H184.51C190.228 355.332 195.644 359.551 200.71 364.17Z" fill="#FAFAFA"/>
<path d="M243.72 364.17H203.32L198.18 351.55H238.58L243.72 364.17Z" fill="#B0BEC5"/>
<path opacity="0.3" d="M243.72 364.17H203.32L198.18 351.55H238.58L243.72 364.17Z" fill="black"/>
<path d="M237.25 364.17H210.66L215.8 351.55H232.11L237.25 364.17Z" fill="#B0BEC5"/>
<path opacity="0.2" d="M237.25 364.17H210.66L215.8 351.55H232.11L237.25 364.17Z" fill="#FAFAFA"/>
<path d="M277.65 364.17H237.25L232.11 351.55H272.51L277.65 364.17Z" fill="#B0BEC5"/>
<path opacity="0.3" d="M277.65 364.17H237.25L232.11 351.55H272.51L277.65 364.17Z" fill="black"/>
<path d="M271.18 364.17H244.59L249.73 351.55H266.04L271.18 364.17Z" fill="#B0BEC5"/>
<path opacity="0.2" d="M271.18 364.17H244.59L249.73 351.55H266.04L271.18 364.17Z" fill="#FAFAFA"/>
<path d="M311.37 363.63L306.45 351.55H266L271.14 364.17H310.77C311 364 311.18 363.81 311.37 363.63Z" fill="#B0BEC5"/>
<path opacity="0.3" d="M311.37 363.63L306.45 351.55H266L271.14 364.17H310.77C311 364 311.18 363.81 311.37 363.63Z" fill="black"/>
<path d="M305.12 364.17H278.52L283.66 351.55H299.98L305.12 364.17Z" fill="#B0BEC5"/>
<path opacity="0.2" d="M305.12 364.17H278.52L283.66 351.55H299.98L305.12 364.17Z" fill="#FAFAFA"/>
<path d="M310.81 364.17C314.533 360.5 317.619 356.235 319.94 351.55H300L305.14 364.17H310.81Z" fill="#B0BEC5"/>
<path opacity="0.3" d="M310.81 364.17C314.533 360.5 317.619 356.235 319.94 351.55H300L305.14 364.17H310.81Z" fill="black"/>
<path d="M319.94 351.55H317.6L313.72 361.07C316.128 358.128 318.213 354.937 319.94 351.55Z" fill="#B0BEC5"/>
<path opacity="0.2" d="M319.94 351.55H317.6L313.72 361.07C316.128 358.128 318.213 354.937 319.94 351.55Z" fill="#FAFAFA"/>
<path d="M169.32 340.34C174.13 344.41 179.32 347.96 184.51 351.55H186.22L181.08 338.93H167.69C168.23 339.4 168.77 339.88 169.32 340.34Z" fill="#B0BEC5"/>
<path opacity="0.3" d="M169.32 340.34C174.13 344.41 179.32 347.96 184.51 351.55H186.22L181.08 338.93H167.69C168.23 339.4 168.77 339.88 169.32 340.34Z" fill="black"/>
<path d="M169.32 340.34C172.06 342.66 174.93 344.81 177.85 346.89L174.61 338.89H167.69C168.23 339.4 168.77 339.88 169.32 340.34Z" fill="#B0BEC5"/>
<path opacity="0.2" d="M169.32 340.34C172.06 342.66 174.93 344.81 177.85 346.89L174.61 338.89H167.69C168.23 339.4 168.77 339.88 169.32 340.34Z" fill="#FAFAFA"/>
<path d="M184.51 351.55H220.15L215 338.93H174.6L177.84 346.93C180.05 348.47 182.29 350 184.51 351.55Z" fill="#B0BEC5"/>
<path opacity="0.3" d="M184.51 351.55H220.15L215 338.93H174.6L177.84 346.93C180.05 348.47 182.29 350 184.51 351.55Z" fill="black"/>
<path d="M213.68 351.55H187.09L192.23 338.93H208.54L213.68 351.55Z" fill="#B0BEC5"/>
<path opacity="0.2" d="M213.68 351.55H187.09L192.23 338.93H208.54L213.68 351.55Z" fill="#FAFAFA"/>
<path d="M254.09 351.55H213.68L208.54 338.93H248.95L254.09 351.55Z" fill="#B0BEC5"/>
<path opacity="0.3" d="M254.09 351.55H213.68L208.54 338.93H248.95L254.09 351.55Z" fill="black"/>
<path d="M247.61 351.55H221.02L226.16 338.93H242.47L247.61 351.55Z" fill="#B0BEC5"/>
<path opacity="0.2" d="M247.61 351.55H221.02L226.16 338.93H242.47L247.61 351.55Z" fill="#FAFAFA"/>
<path d="M288.02 351.55H247.61L242.47 338.93H282.88L288.02 351.55Z" fill="#B0BEC5"/>
<path opacity="0.3" d="M288.02 351.55H247.61L242.47 338.93H282.88L288.02 351.55Z" fill="black"/>
<path d="M281.55 351.55H254.96L260.1 338.93H276.41L281.55 351.55Z" fill="#B0BEC5"/>
<path opacity="0.2" d="M281.55 351.55H254.96L260.1 338.93H276.41L281.55 351.55Z" fill="#FAFAFA"/>
<path d="M321.05 349.35L316.81 338.93H276.41L281.55 351.55H319.94C320.33 350.82 320.69 350.09 321.05 349.35Z" fill="#B0BEC5"/>
<path opacity="0.3" d="M321.05 349.35L316.81 338.93H276.41L281.55 351.55H319.94C320.33 350.82 320.69 350.09 321.05 349.35Z" fill="black"/>
<path d="M315.48 351.55H288.89L294.03 338.93H310.34L315.48 351.55Z" fill="#B0BEC5"/>
<path opacity="0.2" d="M315.48 351.55H288.89L294.03 338.93H310.34L315.48 351.55Z" fill="#FAFAFA"/>
<path d="M319.94 351.55C322.032 347.458 323.875 343.244 325.46 338.93H310.34L315.48 351.55H319.94Z" fill="#B0BEC5"/>
<path opacity="0.3" d="M319.94 351.55C322.032 347.458 323.875 343.244 325.46 338.93H310.34L315.48 351.55H319.94Z" fill="black"/>
<path d="M167.69 338.93H195.1L190 326.3H155.57C159.258 330.834 163.312 335.058 167.69 338.93Z" fill="#B0BEC5"/>
<path opacity="0.3" d="M167.69 338.93H195.1L190 326.3H155.57C159.258 330.834 163.312 335.058 167.69 338.93Z" fill="black"/>
<path d="M167.69 338.93H188.63L183.49 326.3H167.18L163.59 335.11C164.917 336.423 166.283 337.697 167.69 338.93Z" fill="#B0BEC5"/>
<path opacity="0.2" d="M167.69 338.93H188.63L183.49 326.3H167.18L163.59 335.11C164.917 336.423 166.283 337.697 167.69 338.93Z" fill="#FAFAFA"/>
<path d="M229.04 338.93H188.63L183.49 326.3H223.9L229.04 338.93Z" fill="#B0BEC5"/>
<path opacity="0.3" d="M229.04 338.93H188.63L183.49 326.3H223.9L229.04 338.93Z" fill="black"/>
<path d="M222.56 338.93H195.97L201.11 326.3H217.43L222.56 338.93Z" fill="#B0BEC5"/>
<path opacity="0.2" d="M222.56 338.93H195.97L201.11 326.3H217.43L222.56 338.93Z" fill="#FAFAFA"/>
<path d="M262.97 338.93H222.56L217.43 326.3H257.83L262.97 338.93Z" fill="#B0BEC5"/>
<path opacity="0.3" d="M262.97 338.93H222.56L217.43 326.3H257.83L262.97 338.93Z" fill="black"/>
<path d="M256.5 338.93H229.91L235.05 326.3H251.36L256.5 338.93Z" fill="#B0BEC5"/>
<path opacity="0.2" d="M256.5 338.93H229.91L235.05 326.3H251.36L256.5 338.93Z" fill="#FAFAFA"/>
<path d="M296.9 338.93H256.5L251.36 326.3H291.76L296.9 338.93Z" fill="#B0BEC5"/>
<path opacity="0.3" d="M296.9 338.93H256.5L251.36 326.3H291.76L296.9 338.93Z" fill="black"/>
<path d="M290.43 338.93H263.84L268.98 326.3H285.29L290.43 338.93Z" fill="#B0BEC5"/>
<path opacity="0.2" d="M290.43 338.93H263.84L268.98 326.3H285.29L290.43 338.93Z" fill="#FAFAFA"/>
<path d="M328 331.94L325.71 326.3H285.29L290.43 338.93H325.43C326.36 336.55 327.19 334.2 328 331.94Z" fill="#B0BEC5"/>
<path opacity="0.3" d="M328 331.94L325.71 326.3H285.29L290.43 338.93H325.43C326.36 336.55 327.19 334.2 328 331.94Z" fill="black"/>
<path d="M324.37 338.93H297.77L302.91 326.3H319.23L324.37 338.93Z" fill="#B0BEC5"/>
<path opacity="0.2" d="M324.37 338.93H297.77L302.91 326.3H319.23L324.37 338.93Z" fill="#FAFAFA"/>
<path d="M325.46 338.93C327.11 334.56 328.55 330.29 329.95 326.51C329.969 326.439 329.992 326.368 330.02 326.3H319.23L324.37 338.93H325.46Z" fill="#B0BEC5"/>
<path opacity="0.3" d="M325.46 338.93C327.11 334.56 328.55 330.29 329.95 326.51C329.969 326.439 329.992 326.368 330.02 326.3H319.23L324.37 338.93H325.46Z" fill="black"/>
<path d="M155.57 326.3H165.06L159.92 313.68H146.66C149.334 318.088 152.311 322.305 155.57 326.3Z" fill="#B0BEC5"/>
<path opacity="0.2" d="M155.57 326.3H165.06L159.92 313.68H146.66C149.334 318.088 152.311 322.305 155.57 326.3Z" fill="#FAFAFA"/>
<path d="M205.47 326.3H165.06L159.92 313.68H200.33L205.47 326.3Z" fill="#B0BEC5"/>
<path opacity="0.3" d="M205.47 326.3H165.06L159.92 313.68H200.33L205.47 326.3Z" fill="black"/>
<path d="M199 326.3H172.4L177.54 313.68H193.86L199 326.3Z" fill="#B0BEC5"/>
<path opacity="0.2" d="M199 326.3H172.4L177.54 313.68H193.86L199 326.3Z" fill="#FAFAFA"/>
<path d="M239.4 326.3H199L193.86 313.68H234.26L239.4 326.3Z" fill="#B0BEC5"/>
<path opacity="0.3" d="M239.4 326.3H199L193.86 313.68H234.26L239.4 326.3Z" fill="black"/>
<path d="M232.93 326.3H206.34L211.48 313.68H227.79L232.93 326.3Z" fill="#B0BEC5"/>
<path opacity="0.2" d="M232.93 326.3H206.34L211.48 313.68H227.79L232.93 326.3Z" fill="#FAFAFA"/>
<path d="M273.33 326.3H232.93L227.79 313.68H268.19L273.33 326.3Z" fill="#B0BEC5"/>
<path opacity="0.3" d="M273.33 326.3H232.93L227.79 313.68H268.19L273.33 326.3Z" fill="black"/>
<path d="M266.86 326.3H240.27L245.41 313.68H261.72L266.86 326.3Z" fill="#B0BEC5"/>
<path opacity="0.2" d="M266.86 326.3H240.27L245.41 313.68H261.72L266.86 326.3Z" fill="#FAFAFA"/>
<path d="M307.27 326.3H266.86L261.72 313.68H302.13L307.27 326.3Z" fill="#B0BEC5"/>
<path opacity="0.3" d="M307.27 326.3H266.86L261.72 313.68H302.13L307.27 326.3Z" fill="black"/>
<path d="M300.8 326.3H274.2L279.34 313.68H295.66L300.8 326.3Z" fill="#B0BEC5"/>
<path opacity="0.2" d="M300.8 326.3H274.2L279.34 313.68H295.66L300.8 326.3Z" fill="#FAFAFA"/>
<path d="M330 326.3C331.54 322.127 332.963 317.92 334.27 313.68H295.66L300.8 326.3H330Z" fill="#B0BEC5"/>
<path opacity="0.3" d="M330 326.3C331.54 322.127 332.963 317.92 334.27 313.68H295.66L300.8 326.3H330Z" fill="black"/>
<path d="M332.2 320.1L329.59 313.68H313.28L308.14 326.3H330C330.78 324.25 331.5 322.18 332.2 320.1Z" fill="#B0BEC5"/>
<path opacity="0.2" d="M332.2 320.1L329.59 313.68H313.28L308.14 326.3H330C330.78 324.25 331.5 322.18 332.2 320.1Z" fill="#FAFAFA"/>
<path d="M334.29 313.68H329.59L332.2 320.1C332.933 317.973 333.63 315.833 334.29 313.68Z" fill="#B0BEC5"/>
<path opacity="0.3" d="M334.29 313.68H329.59L332.2 320.1C332.933 317.973 333.63 315.833 334.29 313.68Z" fill="black"/>
</g>
<path d="M257.18 112.41C229.86 112.41 203.154 120.511 180.439 135.689C157.724 150.867 140.019 172.44 129.565 197.68C119.11 222.92 116.374 250.693 121.704 277.488C127.034 304.282 140.19 328.895 159.507 348.213C178.825 367.53 203.438 380.686 230.232 386.016C257.027 391.346 284.8 388.61 310.04 378.155C335.28 367.701 356.853 349.996 372.031 327.281C387.209 304.565 395.31 277.859 395.31 250.54C395.31 213.906 380.757 178.772 354.853 152.867C328.948 126.963 293.814 112.41 257.18 112.41ZM257 363.52C234.633 363.518 212.77 356.884 194.173 344.456C175.577 332.028 161.084 314.365 152.526 293.701C143.968 273.036 141.729 250.298 146.094 228.361C150.459 206.424 161.23 186.275 177.047 170.46C192.863 154.645 213.014 143.875 234.951 139.512C256.888 135.149 279.626 137.39 300.29 145.949C320.954 154.509 338.616 169.004 351.042 187.602C363.468 206.199 370.1 228.063 370.1 250.43C370.1 265.282 367.174 279.989 361.491 293.71C355.807 307.431 347.476 319.899 336.973 330.4C326.471 340.902 314.003 349.232 300.281 354.914C286.559 360.597 271.852 363.521 257 363.52Z" fill="#B0BEC5"/>
<path opacity="0.4" d="M257.18 381.56C329.42 381.56 388.18 322.78 388.18 250.56C388.18 178.34 329.4 119.56 257.18 119.56C184.96 119.56 126.18 178.33 126.18 250.56C126.18 322.79 184.93 381.56 257.18 381.56ZM257.18 120.56C291.644 120.605 324.684 134.316 349.054 158.686C373.424 183.056 387.135 216.096 387.18 250.56C387.18 322.25 328.85 380.56 257.18 380.56C185.51 380.56 127.18 322.23 127.18 250.56C127.18 178.89 185.48 120.52 257.18 120.52V120.56Z" fill="#FAFAFA"/>
<path d="M318.88 384.19C286.94 379.38 262.68 319.68 262.68 250.54C262.68 181.4 286.94 121.7 318.88 116.89L348.65 112.41V388.67L318.88 384.19Z" fill="#B0BEC5"/>
<path opacity="0.3" d="M318.88 384.19C286.94 379.38 262.68 319.68 262.68 250.54C262.68 181.4 286.94 121.7 318.88 116.89L348.65 112.41V388.67L318.88 384.19Z" fill="black"/>
<path d="M348.65 388.67C377.463 388.67 400.82 326.827 400.82 250.54C400.82 174.253 377.463 112.41 348.65 112.41C319.837 112.41 296.48 174.253 296.48 250.54C296.48 326.827 319.837 388.67 348.65 388.67Z" fill="#B0BEC5"/>
<path opacity="0.2" d="M358.31 182C342.31 182 329.42 212.69 329.42 250.55C329.42 288.41 342.35 319.09 358.31 319.09C374.27 319.09 387.2 288.41 387.2 250.55C387.2 212.69 374.27 182 358.31 182ZM381.31 250.55C381.31 261.44 379.55 271.34 376.67 278.77L368.33 250L376.51 221.83C379.51 229.3 381.35 239.4 381.35 250.54L381.31 250.55ZM363.72 208.84C367.25 208.84 370.52 211.3 373.27 215.53L365.8 241.44L357.18 211.84C358.892 210.011 361.256 208.929 363.76 208.83L363.72 208.84ZM346.15 250.55C346.15 236.45 349.1 224 353.61 216.45L363.37 250L353.47 284.32C349.06 276.76 346.19 264.45 346.19 250.54L346.15 250.55ZM363.72 292.26C362.439 292.19 361.186 291.865 360.032 291.306C358.878 290.746 357.848 289.962 357 289L365.84 258.53L373.55 285.17C370.75 289.66 367.39 292.25 363.76 292.25L363.72 292.26Z" fill="#FAFAFA"/>
<path opacity="0.4" d="M350.06 385.17C326.56 385.17 301.4 331.07 301.4 250.54C301.4 170.01 326.56 115.91 350.06 115.91C373.56 115.91 398.73 170.01 398.73 250.54C398.73 331.07 373.57 385.17 350.06 385.17ZM350.06 116.91C327.06 116.91 302.4 170.6 302.4 250.54C302.4 330.48 327 384.17 350.06 384.17C373.12 384.17 397.73 330.47 397.73 250.54C397.73 170.61 373.08 116.91 350.06 116.91Z" fill="#FAFAFA"/>
</svg>
