<svg viewBox="0 0 2325 694" preserveAspectRatio="xMinYMin meet"
    xmlns="http://www.w3.org/2000/svg"
    xmlns:xlink="http://www.w3.org/1999/xlink" overflow="hidden">
    <defs>
        <style>
            @import url("https://fonts.googleapis.com/css?family=Poppins");
        </style>
        <clipPath id="clip0">
            <rect x="0" y="0" width="2325" height="694"/>
        </clipPath>
        <clipPath id="clip1">
            <rect x="2181" y="694" width="467" height="384"/>
        </clipPath>
        <clipPath id="clip2">
            <rect x="2181" y="694" width="467" height="384"/>
        </clipPath>
        <clipPath id="clip3">
            <rect x="2181" y="694" width="467" height="384"/>
        </clipPath>
        <clipPath id="clip4">
            <rect x="2181" y="694" width="467" height="384"/>
        </clipPath>
    </defs>
    <text id="lettering" fill="#FC7C00" font-family="Poppins,Poppins_MSFontService,sans-serif" font-weight="400" font-size="330" transform="translate(0,300)">
        keycount
    </text>
    <g clip-path="url(#clip0)" transform="translate(-323 -597)">
        <text fill="#FC7C00" font-family="Poppins,Poppins_MSFontService,sans-serif" font-weight="400" font-size="330" transform="matrix(1 0 0 1 521.96 1001)">
        keycount
        </text>
        <g clip-path="url(#clip1)">
            <g clip-path="url(#clip2)">
                <g clip-path="url(#clip3)">
                    <g clip-path="url(#clip4)">
                        <path d="M663.914 230.566 663.914 268.506" stroke="#FC7C00" stroke-width="11.4039" stroke-linecap="round" stroke-linejoin="round" stroke-miterlimit="10" fill="none" fill-rule="evenodd" transform="matrix(1.00819 0 0 1 1946.87 663.313)"/>
                        <path d="M644.423 229.322 644.423 255.187" stroke="#FC7C00" stroke-width="11.4039" stroke-linecap="round" stroke-linejoin="round" stroke-miterlimit="10" fill="none" fill-rule="evenodd" transform="matrix(1.00819 0 0 1 1946.87 663.313)"/>
                        <path d="M503.446 381.927 476.89 381.927" stroke="#FC7C00" stroke-width="11.4039" stroke-linecap="round" stroke-linejoin="round" stroke-miterlimit="10" fill="none" fill-rule="evenodd" transform="matrix(1.00819 0 0 1 1946.87 663.313)"/>
                        <path d="M503.504 362.022 465.693 362.022" stroke="#FC7C00" stroke-width="11.4039" stroke-linecap="round" stroke-linejoin="round" stroke-miterlimit="10" fill="none" fill-rule="evenodd" transform="matrix(1.00819 0 0 1 1946.87 663.313)"/>
                        <path d="M0 0 0.000149657 372.278" stroke="#FC7C00" stroke-width="11.4039" stroke-linecap="round" stroke-linejoin="round" stroke-miterlimit="10" fill="#FC7C00" fill-rule="evenodd" transform="matrix(1.00819 0 0 -1 2454.85 1072.08)"/>
                        <path d="M320.968 225.59 689.574 227.616" stroke="#FC7C00" stroke-width="11.4039" stroke-linecap="round" stroke-linejoin="round" stroke-miterlimit="10" fill="#FC7C00" fill-rule="evenodd" transform="matrix(1.00819 0 0 1 1946.87 663.313)"/>
                        <path d="M462.376 189.097 644.913 369.546" stroke="#FC7C00" stroke-width="11.4039" stroke-linecap="round" stroke-linejoin="round" stroke-miterlimit="10" fill="#FC7C00" fill-rule="evenodd" transform="matrix(1.00819 0 0 1 1946.87 663.313)"/>
                        <path d="M0 0 18.4933 17.6967" stroke="#FC7C00" stroke-width="11.4039" stroke-linecap="round" stroke-linejoin="round" stroke-miterlimit="10" fill="#FC7C00" fill-rule="evenodd" transform="matrix(-1.00819 0 0 1 2565.47 1007.5)"/>
                        <path d="M0 0 25.2016 27.5" stroke="#FC7C00" stroke-width="11.4045" stroke-linecap="round" stroke-linejoin="round" stroke-miterlimit="10" fill="#FC7C00" fill-rule="evenodd" transform="matrix(-1.00457 -0.0840475 -0.0847361 0.996404 2553.65 991.486)"/>
                        <path d="M618.331 107.967 637.353 126.502" stroke="#FC7C00" stroke-width="11.4039" stroke-linecap="round" stroke-linejoin="round" stroke-miterlimit="10" fill="#FC7C00" fill-rule="evenodd" transform="matrix(1.00819 0 0 1 1946.87 663.313)"/>
                        <path d="M0 0 25.2006 27.4989" stroke="#FC7C00" stroke-width="11.4041" stroke-linecap="round" stroke-linejoin="round" stroke-miterlimit="10" fill="#FC7C00" fill-rule="evenodd" transform="matrix(-0.0433963 0.999058 1.00724 0.0430436 2556.53 786.065)"/>
                        <path d="M503.844 64.6911 530.401 64.6911" stroke="#FC7C00" stroke-width="11.4039" stroke-linecap="round" stroke-linejoin="round" stroke-miterlimit="10" fill="none" fill-rule="evenodd" transform="matrix(1.00819 0 0 1 1946.87 663.313)"/>
                        <path d="M0 0 25.2921 27.5987" stroke="#FC7C00" stroke-width="11.4455" stroke-linecap="round" stroke-linejoin="round" stroke-miterlimit="10" fill="#FC7C00" fill-rule="evenodd" transform="matrix(0.669473 0.742836 0.748922 -0.664033 2456.41 748.023)"/>
                        <path d="M0 0 173.748 179.822" stroke="#FC7C00" stroke-width="11.4039" stroke-linecap="round" stroke-linejoin="round" stroke-miterlimit="10" fill="#FC7C00" fill-rule="evenodd" transform="matrix(1.00819 0 0 -1 2412.62 931.878)"/>
                        <path d="M445.581 227.041C445.581 197.268 471.387 173.132 503.222 173.132 535.058 173.132 560.864 197.268 560.864 227.041 560.864 256.814 535.058 280.95 503.222 280.95 471.387 280.95 445.581 256.814 445.581 227.041Z" stroke="#FC7C00" stroke-width="9.50325" stroke-linejoin="round" stroke-miterlimit="10" fill="#FC7C00" fill-rule="evenodd" transform="matrix(1.00819 0 0 1 1946.87 663.313)"/>
                        <path d="M444.544 226.834C444.544 194.083 471.001 167.533 503.637 167.533 536.273 167.533 562.73 194.083 562.73 226.834 562.73 259.584 536.273 286.134 503.637 286.134 471.001 286.134 444.544 259.584 444.544 226.834Z" stroke="#FC7C00" stroke-width="13.3045" stroke-linejoin="round" stroke-miterlimit="10" fill="#FC7C00" fill-rule="evenodd" transform="matrix(1.00819 0 0 1 1946.87 663.313)"/>
                        <path d="M663.914 230.566 663.914 268.506" stroke="#FC7C00" stroke-width="11.4039" stroke-linecap="round" stroke-linejoin="round" stroke-miterlimit="10" fill="none" fill-rule="evenodd" transform="matrix(1.00819 0 0 1 1946.87 663.313)"/>
                        <path d="M644.423 229.322 644.423 255.187" stroke="#FC7C00" stroke-width="11.4039" stroke-linecap="round" stroke-linejoin="round" stroke-miterlimit="10" fill="none" fill-rule="evenodd" transform="matrix(1.00819 0 0 1 1946.87 663.313)"/>
                        <path d="M503.446 381.927 476.89 381.927" stroke="#FC7C00" stroke-width="11.4039" stroke-linecap="round" stroke-linejoin="round" stroke-miterlimit="10" fill="none" fill-rule="evenodd" transform="matrix(1.00819 0 0 1 1946.87 663.313)"/>
                        <path d="M503.504 362.022 465.693 362.022" stroke="#FC7C00" stroke-width="11.4039" stroke-linecap="round" stroke-linejoin="round" stroke-miterlimit="10" fill="none" fill-rule="evenodd" transform="matrix(1.00819 0 0 1 1946.87 663.313)"/>
                        <path d="M0 0 0.000598629 372.278" stroke="#FC7C00" stroke-width="11.4039" stroke-linecap="round" stroke-linejoin="round" stroke-miterlimit="10" fill="none" fill-rule="evenodd" transform="matrix(1.00819 0 0 -1 2454.85 1072.08)"/>
                        <path d="M320.968 225.59 689.574 227.615" stroke="#FC7C00" stroke-width="11.4039" stroke-linecap="round" stroke-linejoin="round" stroke-miterlimit="10" fill="none" fill-rule="evenodd" transform="matrix(1.00819 0 0 1 1946.87 663.313)"/>
                        <path d="M462.376 189.097 644.913 369.546" stroke="#FC7C00" stroke-width="11.4039" stroke-linecap="round" stroke-linejoin="round" stroke-miterlimit="10" fill="none" fill-rule="evenodd" transform="matrix(1.00819 0 0 1 1946.87 663.313)"/>
                        <path d="M238.652 226.212C238.652 187.506 270.029 156.13 308.734 156.13 347.44 156.13 378.816 187.506 378.816 226.212 378.816 264.917 347.44 296.294 308.734 296.294 270.029 296.294 238.652 264.917 238.652 226.212Z" stroke="#FC7C00" stroke-width="12.8294" stroke-linejoin="round" stroke-miterlimit="10" fill="#FC7C00" fill-rule="evenodd" transform="matrix(1.00819 0 0 1 1946.87 663.313)"/>
                        <path d="M0 0 18.4932 17.6967" stroke="#FC7C00" stroke-width="11.4039" stroke-linecap="round" stroke-linejoin="round" stroke-miterlimit="10" fill="#FC7C00" fill-rule="evenodd" transform="matrix(-1.00819 0 0 1 2565.47 1007.5)"/>
                        <path d="M0 0 25.2018 27.4999" stroke="#FC7C00" stroke-width="11.4045" stroke-linecap="round" stroke-linejoin="round" stroke-miterlimit="10" fill="#FC7C00" fill-rule="evenodd" transform="matrix(-1.00457 -0.0840475 -0.0847361 0.996404 2553.65 991.485)"/>
                        <path d="M618.331 107.967 637.353 126.502" stroke="#FC7C00" stroke-width="11.4039" stroke-linecap="round" stroke-linejoin="round" stroke-miterlimit="10" fill="#FC7C00" fill-rule="evenodd" transform="matrix(1.00819 0 0 1 1946.87 663.313)"/>
                        <path d="M0 0 25.2006 27.4986" stroke="#FC7C00" stroke-width="11.4041" stroke-linecap="round" stroke-linejoin="round" stroke-miterlimit="10" fill="#FC7C00" fill-rule="evenodd" transform="matrix(-0.0433963 0.999058 1.00724 0.0430436 2556.53 786.065)"/>
                        <path d="M503.844 64.6911 530.401 64.6911" stroke="#FC7C00" stroke-width="11.4039" stroke-linecap="round" stroke-linejoin="round" stroke-miterlimit="10" fill="none" fill-rule="evenodd" transform="matrix(1.00819 0 0 1 1946.87 663.313)"/>
                        <path d="M0 0 25.2924 27.5987" stroke="#FC7C00" stroke-width="11.4455" stroke-linecap="round" stroke-linejoin="round" stroke-miterlimit="10" fill="#FC7C00" fill-rule="evenodd" transform="matrix(0.669473 0.742836 0.748922 -0.664033 2456.41 748.023)"/>
                        <path d="M0 0 173.748 179.822" stroke="#FC7C00" stroke-width="11.4039" stroke-linecap="round" stroke-linejoin="round" stroke-miterlimit="10" fill="none" fill-rule="evenodd" transform="matrix(1.00819 0 0 -1 2412.62 931.878)"/>
                        <path d="M445.581 227.041C445.581 197.268 471.387 173.132 503.222 173.132 535.058 173.132 560.864 197.268 560.864 227.041 560.864 256.814 535.058 280.95 503.222 280.95 471.387 280.95 445.581 256.814 445.581 227.041Z" stroke="#FC7C00" stroke-width="9.50325" stroke-linejoin="round" stroke-miterlimit="10" fill="#FC7C00" fill-rule="evenodd" transform="matrix(1.00819 0 0 1 1946.87 663.313)"/>
                        <path d="M444.544 226.834C444.544 194.083 471.001 167.533 503.637 167.533 536.273 167.533 562.73 194.083 562.73 226.834 562.73 259.584 536.273 286.134 503.637 286.134 471.001 286.134 444.544 259.584 444.544 226.834Z" stroke="#FC7C00" stroke-width="13.3045" stroke-linejoin="round" stroke-miterlimit="10" fill="#FC7C00" fill-rule="evenodd" transform="matrix(1.00819 0 0 1 1946.87 663.313)"/>
                    </g>
                </g>
            </g>
        </g>
    </g>
</svg>