<svg xmlns="http://www.w3.org/2000/svg"
    xmlns:xlink="http://www.w3.org/1999/xlink" width="1117" height="926" viewBox="0 0 1117 926" preserveAspectRatio="xMinYMin meet">
    <defs>
        <clipPath id="clip0">
            <rect x="560" y="74" width="1117" height="926"></rect>
        </clipPath>
    </defs>
    <g clip-path="url(#clip0)" transform="translate(-560 -74)">
        <path d="M1601 556 1601 647.49" stroke="#FC7C00" stroke-width="27.5" stroke-linecap="round" stroke-linejoin="round" stroke-miterlimit="10" fill="#FC7C00" fill-rule="evenodd"></path>
        <path d="M1554 553 1554 615.372" stroke="#FC7C00" stroke-width="27.5" stroke-linecap="round" stroke-linejoin="round" stroke-miterlimit="10" fill="#FC7C00" fill-rule="evenodd"></path>
        <path d="M1214.04 921 1150 921" stroke="#FC7C00" stroke-width="27.5" stroke-linecap="round" stroke-linejoin="round" stroke-miterlimit="10" fill="#FC7C00" fill-rule="evenodd"></path>
        <path d="M1214.18 873 1123 873" stroke="#FC7C00" stroke-width="27.5" stroke-linecap="round" stroke-linejoin="round" stroke-miterlimit="10" fill="#FC7C00" fill-rule="evenodd"></path>
        <path d="M0 0 0.000360892 897.733" stroke="#FC7C00" stroke-width="27.5" stroke-linecap="round" stroke-linejoin="round" stroke-miterlimit="10" fill="#FC7C00" fill-rule="evenodd" transform="matrix(1 0 0 -1 1215 985.733)"></path>
        <path d="M774 544 1662.88 548.886" stroke="#FC7C00" stroke-width="27.5" stroke-linecap="round" stroke-linejoin="round" stroke-miterlimit="10" fill="#FC7C00" fill-rule="evenodd"></path>
        <path d="M1115 456 1555.18 891.145" stroke="#FC7C00" stroke-width="27.5" stroke-linecap="round" stroke-linejoin="round" stroke-miterlimit="10" fill="#FC7C00" fill-rule="evenodd"></path>
        <path d="M0 0 44.5958 42.6748" stroke="#FC7C00" stroke-width="27.5" stroke-linecap="round" stroke-linejoin="round" stroke-miterlimit="10" fill="#FC7C00" fill-rule="evenodd" transform="matrix(-1 0 0 1 1479.6 830)"></path>
        <path d="M0 0 60.7692 66.3114" stroke="#FC7C00" stroke-width="27.5" stroke-linecap="round" stroke-linejoin="round" stroke-miterlimit="10" fill="#FC7C00" fill-rule="evenodd" transform="matrix(-0.996461 -0.0840523 -0.0840523 0.996461 1451.32 791.374)"></path>
        <path d="M1491.08 260.358 1536.95 305.055" stroke="#FC7C00" stroke-width="27.5" stroke-linecap="round" stroke-linejoin="round" stroke-miterlimit="10" fill="#FC7C00" fill-rule="evenodd"></path>
        <path d="M0 0 60.7692 66.3114" stroke="#FC7C00" stroke-width="27.5" stroke-linecap="round" stroke-linejoin="round" stroke-miterlimit="10" fill="#FC7C00" fill-rule="evenodd" transform="matrix(-0.0430443 0.999073 0.999073 0.0430443 1458.22 296.01)"></path>
        <path d="M1215 156 1279.04 156" stroke="#FC7C00" stroke-width="27.5" stroke-linecap="round" stroke-linejoin="round" stroke-miterlimit="10" fill="#FC7C00" fill-rule="evenodd"></path>
        <path d="M0 0 60.7692 66.3114" stroke="#FC7C00" stroke-width="27.5" stroke-linecap="round" stroke-linejoin="round" stroke-miterlimit="10" fill="#FC7C00" fill-rule="evenodd" transform="matrix(0.666455 0.745545 0.745545 -0.666455 1218.74 204.275)"></path>
        <path d="M0 0 418.986 433.633" stroke="#FC7C00" stroke-width="27.5" stroke-linecap="round" stroke-linejoin="round" stroke-miterlimit="10" fill="#FC7C00" fill-rule="evenodd" transform="matrix(1 0 0 -1 1114 647.633)"></path>
        <path d="M1074.5 547.5C1074.5 475.703 1136.73 417.5 1213.5 417.5 1290.27 417.5 1352.5 475.703 1352.5 547.5 1352.5 619.297 1290.27 677.5 1213.5 677.5 1136.73 677.5 1074.5 619.297 1074.5 547.5Z" stroke="#FC7C00" stroke-width="22.9167" stroke-linejoin="round" stroke-miterlimit="10" fill="#FC7C00" fill-rule="evenodd"></path>
        <path d="M1072 547C1072 468.023 1135.8 404 1214.5 404 1293.2 404 1357 468.023 1357 547 1357 625.977 1293.2 690 1214.5 690 1135.8 690 1072 625.977 1072 547Z" stroke="#FC7C00" stroke-width="32.0833" stroke-linejoin="round" stroke-miterlimit="10" fill="#FC7C00" fill-rule="evenodd"></path>
        <path d="M1601 556 1601 647.49" stroke="#FC7C00" stroke-width="27.5" stroke-linecap="round" stroke-linejoin="round" stroke-miterlimit="10" fill="#FC7C00" fill-rule="evenodd"></path>
        <path d="M1554 553 1554 615.372" stroke="#FC7C00" stroke-width="27.5" stroke-linecap="round" stroke-linejoin="round" stroke-miterlimit="10" fill="#FC7C00" fill-rule="evenodd"></path>
        <path d="M1214.04 921 1150 921" stroke="#FC7C00" stroke-width="27.5" stroke-linecap="round" stroke-linejoin="round" stroke-miterlimit="10" fill="#FC7C00" fill-rule="evenodd"></path>
        <path d="M1214.18 873 1123 873" stroke="#FC7C00" stroke-width="27.5" stroke-linecap="round" stroke-linejoin="round" stroke-miterlimit="10" fill="#FC7C00" fill-rule="evenodd"></path>
        <path d="M0 0 0.00144357 897.733" stroke="#FC7C00" stroke-width="27.5" stroke-linecap="round" stroke-linejoin="round" stroke-miterlimit="10" fill="none" fill-rule="evenodd" transform="matrix(1 0 0 -1 1215 985.733)"></path>
        <path d="M774 544 1662.88 548.885" stroke="#FC7C00" stroke-width="27.5" stroke-linecap="round" stroke-linejoin="round" stroke-miterlimit="10" fill="none" fill-rule="evenodd"></path>
        <path d="M1115 456 1555.18 891.145" stroke="#FC7C00" stroke-width="27.5" stroke-linecap="round" stroke-linejoin="round" stroke-miterlimit="10" fill="none" fill-rule="evenodd"></path>
        <path d="M575.5 545.5C575.5 452.164 651.164 376.5 744.5 376.5 837.836 376.5 913.5 452.164 913.5 545.5 913.5 638.836 837.836 714.5 744.5 714.5 651.164 714.5 575.5 638.836 575.5 545.5Z" stroke="#FC7C00" stroke-width="30.9375" stroke-linejoin="round" stroke-miterlimit="10" fill="#FC7C00" fill-rule="evenodd"></path>
        <path d="M0 0 44.5955 42.6748" stroke="#FC7C00" stroke-width="27.5" stroke-linecap="round" stroke-linejoin="round" stroke-miterlimit="10" fill="#FC7C00" fill-rule="evenodd" transform="matrix(-1 0 0 1 1479.6 830)"></path>
        <path d="M0 0 60.7696 66.3111" stroke="#FC7C00" stroke-width="27.5" stroke-linecap="round" stroke-linejoin="round" stroke-miterlimit="10" fill="#FC7C00" fill-rule="evenodd" transform="matrix(-0.996461 -0.0840523 -0.0840523 0.996461 1451.33 791.373)"></path>
        <path d="M1491.08 260.358 1536.95 305.054" stroke="#FC7C00" stroke-width="27.5" stroke-linecap="round" stroke-linejoin="round" stroke-miterlimit="10" fill="#FC7C00" fill-rule="evenodd"></path>
        <path d="M0 0 60.7692 66.3107" stroke="#FC7C00" stroke-width="27.5" stroke-linecap="round" stroke-linejoin="round" stroke-miterlimit="10" fill="#FC7C00" fill-rule="evenodd" transform="matrix(-0.0430443 0.999073 0.999073 0.0430443 1458.22 296.01)"></path>
        <path d="M1215 156 1279.04 156" stroke="#FC7C00" stroke-width="27.5" stroke-linecap="round" stroke-linejoin="round" stroke-miterlimit="10" fill="#FC7C00" fill-rule="evenodd"></path>
        <path d="M0 0 60.77 66.3114" stroke="#FC7C00" stroke-width="27.5" stroke-linecap="round" stroke-linejoin="round" stroke-miterlimit="10" fill="#FC7C00" fill-rule="evenodd" transform="matrix(0.666455 0.745545 0.745545 -0.666455 1218.74 204.275)"></path>
        <path d="M0 0 418.986 433.633" stroke="#FC7C00" stroke-width="27.5" stroke-linecap="round" stroke-linejoin="round" stroke-miterlimit="10" fill="none" fill-rule="evenodd" transform="matrix(1 0 0 -1 1114 647.633)"></path>
        <path d="M1074.5 547.5C1074.5 475.703 1136.73 417.5 1213.5 417.5 1290.27 417.5 1352.5 475.703 1352.5 547.5 1352.5 619.297 1290.27 677.5 1213.5 677.5 1136.73 677.5 1074.5 619.297 1074.5 547.5Z" stroke="#FC7C00" stroke-width="22.9167" stroke-linejoin="round" stroke-miterlimit="10" fill="#FC7C00" fill-rule="evenodd"></path>
        <path d="M1072 547C1072 468.023 1135.8 404 1214.5 404 1293.2 404 1357 468.023 1357 547 1357 625.977 1293.2 690 1214.5 690 1135.8 690 1072 625.977 1072 547Z" stroke="#FC7C00" stroke-width="32.0833" stroke-linejoin="round" stroke-miterlimit="10" fill="#FC7C00" fill-rule="evenodd"></path>
    </g>
</svg>